<?xml version="1.0" encoding="utf-8"?>
<!-- Generator: Adobe Illustrator 19.1.0, SVG Export Plug-In . SVG Version: 6.00 Build 0)  -->
<!DOCTYPE svg PUBLIC "-//W3C//DTD SVG 1.1//EN" "http://www.w3.org/Graphics/SVG/1.1/DTD/svg11.dtd">
<svg version="1.1" id="Layer_1" xmlns="http://www.w3.org/2000/svg" xmlns:xlink="http://www.w3.org/1999/xlink" x="0px" y="0px"
	 viewBox="-405 242 52 52" style="enable-background:new -405 242 52 52;" xml:space="preserve">
<style type="text/css">
	.st0{fill:#FFFFFF;}
</style>
<path class="st0" d="M-357,264h-18v-18c0-2.2-1.8-4-4-4c-2.2,0-4,1.8-4,4v18h-18c-2.2,0-4,1.8-4,4c0,2.2,1.8,4,4,4h18v18
	c0,2.2,1.8,4,4,4c2.2,0,4-1.8,4-4v-18h18c2.2,0,4-1.8,4-4C-353,265.8-354.8,264-357,264z"/>
</svg>
